<?xml version="1.0" encoding="utf-8"?>
<!-- Generator: Adobe Illustrator 26.0.0, SVG Export Plug-In . SVG Version: 6.00 Build 0)  -->
<svg version="1.1" id="Calque_1" xmlns="http://www.w3.org/2000/svg" xmlns:xlink="http://www.w3.org/1999/xlink" x="0px" y="0px"
	 width="600px" height="30px" viewBox="0 0 600 30" style="enable-background:new 0 0 600 30;" xml:space="preserve">
<style type="text/css">
	.st0{fill:#0C1C67;}
</style>
<path class="st0" d="M0,4.8h5.9v19.1h4.2V4.8h5.8V1.2H0V4.8z M29.2,8.1C27.9,7.3,26.4,7,24.8,7c-1.6,0-3.1,0.4-4.5,1.1
	c-1.3,0.7-2.4,1.8-3.2,3.1c-0.8,1.3-1.2,2.8-1.2,4.5s0.4,3.2,1.2,4.5c0.8,1.3,1.9,2.3,3.2,3.1c1.3,0.8,2.8,1.1,4.5,1.1
	c1.6,0,3.1-0.4,4.4-1.1c1.3-0.7,2.4-1.8,3.2-3.1c0.8-1.3,1.2-2.8,1.2-4.5c0-1.7-0.4-3.2-1.2-4.5C31.6,9.9,30.5,8.8,29.2,8.1z
	 M28.8,18.2c-0.4,0.7-0.9,1.3-1.6,1.8c-0.7,0.4-1.5,0.6-2.3,0.6c-0.9,0-1.7-0.2-2.4-0.6c-0.7-0.4-1.3-1-1.6-1.8
	c-0.4-0.8-0.6-1.6-0.6-2.6s0.2-1.8,0.6-2.6c0.4-0.7,1-1.3,1.6-1.8c0.7-0.4,1.5-0.7,2.4-0.7c0.9,0,1.7,0.2,2.3,0.7
	c0.7,0.4,1.3,1,1.6,1.8c0.4,0.8,0.6,1.6,0.6,2.6C29.4,16.6,29.2,17.4,28.8,18.2L28.8,18.2z M47.7,17c0,1.1-0.3,2-0.9,2.6
	c-0.6,0.6-1.4,0.9-2.4,0.9c-1,0-1.8-0.3-2.4-0.9C41.3,19,41,18.2,41,17.1V7.3h-4v10.2c0,2,0.5,3.7,1.6,4.9c1.1,1.2,2.7,1.9,4.6,1.9
	c1,0,2-0.2,2.7-0.6c0.8-0.4,1.5-1,1.9-1.8v2h3.8V7.3h-4L47.7,17L47.7,17z M62.5,19.9c-0.4-0.4-0.7-1.1-0.7-1.9v-7.1h3.8V7.3h-3.8
	V3.5h-4v1.3c0,0.8-0.2,1.4-0.7,1.9c-0.4,0.4-1.1,0.6-1.9,0.6H55v3.6h2.9v7.3c0,1.9,0.5,3.3,1.5,4.3c1,1,2.5,1.6,4.4,1.6
	c0.7,0,1.3-0.1,2-0.2v-3.4c-0.4,0.1-0.7,0.1-1.1,0.1C63.7,20.6,63,20.4,62.5,19.9z M81.4,8.1C80.2,7.3,78.7,7,77,7
	c-1.5,0-2.9,0.4-4.2,1.1c-1.2,0.8-2.2,1.8-3,3.1c-0.7,1.3-1.1,2.8-1.1,4.4c0,1.6,0.4,3.1,1.1,4.4c0.7,1.3,1.7,2.4,3,3.1
	c1.3,0.8,2.8,1.2,4.5,1.2c1.7,0,3.2-0.4,4.4-1.1c1.3-0.8,2.2-1.7,2.7-2.9l-3.2-1.6c-0.4,0.6-0.9,1.2-1.5,1.6
	c-0.6,0.4-1.4,0.6-2.3,0.6c-1.2,0-2.2-0.4-3-1.1c-0.8-0.7-1.3-1.7-1.4-2.9h12c0.1-0.2,0.1-0.5,0.2-0.8c0-0.3,0.1-0.6,0.1-0.9
	c0-1.5-0.3-2.8-0.9-4.1C83.5,9.8,82.5,8.8,81.4,8.1L81.4,8.1z M73,13.7c0.2-1.1,0.7-1.9,1.4-2.5c0.7-0.6,1.6-0.9,2.6-0.9
	c1.1,0,1.9,0.3,2.6,1c0.7,0.6,1.1,1.5,1.2,2.5C80.8,13.7,73,13.7,73,13.7z M93.1,10.7c0.4-0.3,0.9-0.5,1.6-0.5
	c0.8,0,1.6,0.2,2.3,0.7c0.7,0.4,1.2,1.1,1.4,1.8l3-1.4c-0.5-1.3-1.4-2.4-2.6-3.1C97.7,7.3,96.3,7,94.8,7c-1.2,0-2.3,0.2-3.2,0.6
	c-0.9,0.4-1.6,1-2.2,1.8c-0.5,0.8-0.8,1.6-0.8,2.7c0,1.1,0.4,2.1,1.1,3c0.7,0.8,1.8,1.5,3.2,1.9l2.7,0.8c0.5,0.1,1,0.4,1.3,0.6
	c0.4,0.3,0.6,0.6,0.6,1.1c0,0.5-0.2,1-0.7,1.3c-0.4,0.3-1,0.5-1.7,0.5c-0.9,0-1.8-0.3-2.5-0.8c-0.8-0.5-1.4-1.3-1.8-2.2l-3,1.4
	c0.5,1.4,1.4,2.6,2.7,3.4c1.3,0.9,2.9,1.3,4.6,1.3c1.3,0,2.4-0.2,3.3-0.6c0.9-0.4,1.7-1,2.2-1.8c0.5-0.8,0.8-1.7,0.8-2.7
	c0-1.2-0.4-2.2-1.1-3c-0.7-0.8-1.8-1.4-3.2-1.8l-2.7-0.8c-0.6-0.2-1-0.4-1.4-0.6s-0.5-0.6-0.5-1.1C92.6,11.4,92.8,11,93.1,10.7
	L93.1,10.7z M111.5,23.9h4V0.8h-4V23.9L111.5,23.9z M131.9,8.1c-1.2-0.8-2.7-1.1-4.4-1.1c-1.5,0-2.9,0.4-4.2,1.1
	c-1.2,0.8-2.2,1.8-3,3.1c-0.7,1.3-1.1,2.8-1.1,4.4c0,1.6,0.4,3.1,1.1,4.4c0.7,1.3,1.7,2.4,3,3.1c1.3,0.8,2.8,1.2,4.5,1.2
	c1.7,0,3.2-0.4,4.4-1.1c1.3-0.8,2.2-1.7,2.7-2.9l-3.2-1.6c-0.4,0.6-0.9,1.2-1.5,1.6c-0.6,0.4-1.4,0.6-2.3,0.6c-1.2,0-2.2-0.4-3-1.1
	c-0.8-0.7-1.3-1.7-1.4-2.9h12c0.1-0.2,0.1-0.5,0.2-0.8c0-0.3,0.1-0.6,0.1-0.9c0-1.5-0.3-2.8-0.9-4.1C134,9.8,133,8.8,131.9,8.1
	L131.9,8.1z M123.5,13.7c0.2-1.1,0.7-1.9,1.4-2.5c0.7-0.6,1.6-0.9,2.6-0.9c1.1,0,1.9,0.3,2.6,1c0.7,0.6,1.1,1.5,1.2,2.5
	C131.3,13.7,123.5,13.7,123.5,13.7z M143.7,10.7c0.4-0.3,0.9-0.5,1.6-0.5c0.8,0,1.6,0.2,2.3,0.7c0.7,0.4,1.2,1.1,1.4,1.8l3.1-1.4
	c-0.5-1.3-1.4-2.4-2.6-3.1c-1.2-0.8-2.6-1.2-4.1-1.2c-1.2,0-2.3,0.2-3.2,0.6c-0.9,0.4-1.6,1-2.2,1.8c-0.5,0.8-0.8,1.6-0.8,2.7
	c0,1.1,0.4,2.1,1.1,3c0.7,0.8,1.8,1.5,3.2,1.9l2.7,0.8c0.5,0.1,1,0.4,1.3,0.6c0.4,0.3,0.6,0.6,0.6,1.1c0,0.5-0.2,1-0.7,1.3
	c-0.4,0.3-1,0.5-1.7,0.5c-0.9,0-1.8-0.3-2.5-0.8s-1.4-1.3-1.8-2.2l-3,1.4c0.5,1.4,1.4,2.6,2.7,3.4c1.3,0.9,2.9,1.3,4.6,1.3
	c1.3,0,2.4-0.2,3.3-0.6c0.9-0.4,1.7-1,2.2-1.8c0.5-0.8,0.8-1.7,0.8-2.7c0-1.2-0.4-2.2-1.1-3c-0.7-0.8-1.8-1.4-3.2-1.8l-2.7-0.8
	c-0.6-0.2-1-0.4-1.4-0.6c-0.4-0.3-0.5-0.6-0.5-1.1C143.1,11.4,143.3,11,143.7,10.7L143.7,10.7z M174.1,0h-4.5l-1.9,4.4h3.5L174.1,0z
	 M173.9,8.1c-1.2-0.8-2.7-1.1-4.4-1.1c-1.5,0-2.9,0.4-4.2,1.1c-1.2,0.8-2.2,1.8-3,3.1c-0.7,1.3-1.1,2.8-1.1,4.4
	c0,1.6,0.4,3.1,1.1,4.4c0.7,1.3,1.7,2.4,3,3.1c1.3,0.8,2.8,1.2,4.5,1.2c1.7,0,3.2-0.4,4.4-1.1c1.3-0.8,2.2-1.7,2.7-2.9l-3.2-1.6
	c-0.4,0.6-0.9,1.2-1.5,1.6c-0.6,0.4-1.4,0.6-2.3,0.6c-1.2,0-2.2-0.4-3-1.1c-0.8-0.7-1.3-1.7-1.4-2.9h12c0.1-0.2,0.1-0.5,0.2-0.8
	c0-0.3,0.1-0.6,0.1-0.9c0-1.5-0.3-2.8-0.9-4.1C176.1,9.8,175.1,8.8,173.9,8.1L173.9,8.1z M165.5,13.7c0.2-1.1,0.7-1.9,1.4-2.5
	c0.7-0.6,1.6-0.9,2.6-0.9c1.1,0,1.9,0.3,2.6,1c0.7,0.6,1.1,1.5,1.2,2.5C173.4,13.7,165.5,13.7,165.5,13.7z M187.1,11.2
	c0.7-0.4,1.5-0.6,2.3-0.6c1,0,1.8,0.3,2.5,0.8c0.7,0.5,1.2,1.2,1.6,2l3.5-1.5c-0.3-1-0.9-1.8-1.6-2.6c-0.7-0.8-1.6-1.4-2.6-1.7
	c-1-0.4-2.1-0.6-3.3-0.6c-1.6,0-3.1,0.4-4.5,1.1c-1.3,0.7-2.3,1.8-3.1,3.1c-0.8,1.3-1.1,2.8-1.1,4.4c0,1.6,0.4,3.1,1.1,4.5
	c0.7,1.3,1.8,2.4,3.1,3.1c1.3,0.8,2.8,1.1,4.5,1.1c1.2,0,2.3-0.2,3.3-0.6c1-0.4,1.9-1,2.6-1.7c0.7-0.7,1.3-1.6,1.6-2.5l-3.5-1.6
	c-0.3,0.9-0.8,1.6-1.6,2.1c-0.7,0.5-1.5,0.7-2.5,0.7c-0.9,0-1.7-0.2-2.3-0.6c-0.7-0.4-1.2-1-1.6-1.8c-0.4-0.8-0.6-1.6-0.6-2.6
	c0-1,0.2-1.8,0.6-2.6C185.9,12.3,186.4,11.7,187.1,11.2L187.1,11.2z M213.3,8.1C212,7.3,210.5,7,208.9,7c-1.6,0-3.1,0.4-4.5,1.1
	c-1.3,0.7-2.4,1.8-3.2,3.1c-0.8,1.3-1.2,2.8-1.2,4.5s0.4,3.2,1.2,4.5c0.8,1.3,1.9,2.3,3.2,3.1c1.3,0.8,2.8,1.1,4.5,1.1
	c1.6,0,3.1-0.4,4.4-1.1c1.3-0.7,2.4-1.8,3.2-3.1c0.8-1.3,1.2-2.8,1.2-4.5s-0.4-3.2-1.2-4.5C215.7,9.9,214.6,8.8,213.3,8.1L213.3,8.1
	z M212.8,18.2c-0.4,0.7-0.9,1.3-1.6,1.8c-0.7,0.4-1.5,0.6-2.3,0.6c-0.9,0-1.7-0.2-2.4-0.6c-0.7-0.4-1.3-1-1.6-1.8
	c-0.4-0.8-0.6-1.6-0.6-2.6s0.2-1.8,0.6-2.6c0.4-0.7,0.9-1.3,1.6-1.8c0.7-0.4,1.5-0.7,2.4-0.7c0.9,0,1.7,0.2,2.3,0.7
	c0.7,0.4,1.3,1,1.6,1.8c0.4,0.8,0.6,1.6,0.6,2.6C213.4,16.6,213.2,17.4,212.8,18.2L212.8,18.2z M221.4,23.9h4V0.8h-4V23.9
	L221.4,23.9z M241.8,8.1c-1.2-0.8-2.7-1.1-4.4-1.1c-1.5,0-2.9,0.4-4.2,1.1c-1.2,0.8-2.3,1.8-3,3.1c-0.7,1.3-1.1,2.8-1.1,4.4
	c0,1.6,0.4,3.1,1.1,4.4c0.7,1.3,1.7,2.4,3,3.1c1.3,0.8,2.8,1.2,4.5,1.2c1.7,0,3.2-0.4,4.4-1.1c1.3-0.8,2.2-1.7,2.7-2.9l-3.2-1.6
	c-0.4,0.6-0.9,1.2-1.5,1.6c-0.6,0.4-1.4,0.6-2.3,0.6c-1.2,0-2.2-0.4-3-1.1c-0.8-0.7-1.3-1.7-1.4-2.9h12c0.1-0.2,0.1-0.5,0.2-0.8
	c0-0.3,0.1-0.6,0.1-0.9c0-1.5-0.3-2.8-0.9-4.1C243.9,9.8,243,8.8,241.8,8.1L241.8,8.1z M233.4,13.7c0.2-1.1,0.7-1.9,1.4-2.5
	c0.7-0.6,1.6-0.9,2.6-0.9c1.1,0,1.9,0.3,2.6,1c0.7,0.6,1.1,1.5,1.2,2.5C241.2,13.7,233.4,13.7,233.4,13.7z M253.6,10.7
	c0.4-0.3,0.9-0.5,1.6-0.5c0.8,0,1.6,0.2,2.3,0.7c0.7,0.4,1.2,1.1,1.4,1.8l3.1-1.4c-0.5-1.3-1.4-2.4-2.6-3.1
	c-1.2-0.8-2.6-1.2-4.1-1.2c-1.2,0-2.3,0.2-3.2,0.6c-0.9,0.4-1.6,1-2.2,1.8c-0.5,0.8-0.8,1.6-0.8,2.7c0,1.1,0.4,2.1,1.1,3
	c0.7,0.8,1.8,1.5,3.2,1.9l2.7,0.8c0.5,0.1,1,0.4,1.3,0.6c0.4,0.3,0.6,0.6,0.6,1.1c0,0.5-0.2,1-0.7,1.3c-0.4,0.3-1,0.5-1.7,0.5
	c-0.9,0-1.8-0.3-2.5-0.8s-1.4-1.3-1.8-2.2l-3,1.4c0.5,1.4,1.4,2.6,2.7,3.4c1.3,0.9,2.9,1.3,4.6,1.3c1.3,0,2.4-0.2,3.3-0.6
	c0.9-0.4,1.7-1,2.2-1.8c0.5-0.8,0.8-1.7,0.8-2.7c0-1.2-0.4-2.2-1.1-3c-0.7-0.8-1.8-1.4-3.2-1.8l-2.7-0.8c-0.6-0.2-1-0.4-1.4-0.6
	c-0.4-0.3-0.6-0.6-0.6-1.1C253,11.4,253.2,11,253.6,10.7L253.6,10.7z M285.3,8.1C284,7.3,282.6,7,281,7c-1.1,0-2.2,0.2-3.1,0.6
	c-0.9,0.4-1.7,1-2.3,1.7v-2h-3.8V30h4v-7.7c0.6,0.6,1.4,1.1,2.2,1.5c0.9,0.3,1.8,0.5,2.8,0.5c1.6,0,3-0.4,4.3-1.1
	c1.3-0.8,2.3-1.8,3-3.1c0.7-1.3,1.1-2.8,1.1-4.4s-0.4-3.1-1.1-4.4C287.5,9.9,286.5,8.9,285.3,8.1L285.3,8.1z M284.6,18.2
	c-0.4,0.7-1,1.3-1.7,1.8c-0.7,0.4-1.5,0.6-2.4,0.6c-0.8,0-1.7-0.2-2.4-0.6c-0.7-0.4-1.3-1-1.6-1.8c-0.4-0.8-0.6-1.6-0.6-2.6
	s0.2-1.8,0.6-2.6c0.4-0.7,0.9-1.3,1.6-1.8c0.7-0.4,1.5-0.6,2.4-0.6c0.9,0,1.7,0.2,2.4,0.7c0.7,0.4,1.3,1,1.7,1.8
	c0.4,0.8,0.6,1.6,0.6,2.6C285.2,16.6,285,17.4,284.6,18.2L284.6,18.2z M305.7,8.1c-1.3-0.8-2.8-1.1-4.4-1.1c-1.6,0-3.1,0.4-4.5,1.1
	c-1.3,0.7-2.4,1.8-3.2,3.1c-0.8,1.3-1.2,2.8-1.2,4.5s0.4,3.2,1.2,4.5c0.8,1.3,1.9,2.3,3.2,3.1c1.3,0.8,2.8,1.1,4.5,1.1
	c1.6,0,3.1-0.4,4.4-1.1c1.3-0.7,2.4-1.8,3.2-3.1c0.8-1.3,1.2-2.8,1.2-4.5c0-1.7-0.4-3.2-1.2-4.5C308.1,9.9,307,8.8,305.7,8.1z
	 M305.3,18.2c-0.4,0.7-0.9,1.3-1.6,1.8c-0.7,0.4-1.5,0.6-2.4,0.6c-0.9,0-1.7-0.2-2.4-0.6c-0.7-0.4-1.3-1-1.6-1.8
	c-0.4-0.8-0.6-1.6-0.6-2.6s0.2-1.8,0.6-2.6c0.4-0.7,1-1.3,1.6-1.8c0.7-0.4,1.5-0.7,2.4-0.7c0.9,0,1.7,0.2,2.3,0.7
	c0.7,0.4,1.3,1,1.6,1.8c0.4,0.8,0.6,1.6,0.6,2.6C305.9,16.6,305.7,17.4,305.3,18.2L305.3,18.2z M324.2,17c0,1.1-0.3,2-0.9,2.6
	c-0.6,0.6-1.4,0.9-2.4,0.9c-1,0-1.8-0.3-2.4-0.9c-0.6-0.6-0.9-1.5-0.9-2.5V7.3h-4v10.2c0,2,0.5,3.7,1.6,4.9c1.1,1.2,2.7,1.9,4.6,1.9
	c1,0,2-0.2,2.7-0.6c0.8-0.4,1.5-1,1.9-1.8v2h3.8V7.3h-4V17L324.2,17z M338.2,7.7c-0.8,0.4-1.4,1-1.8,2V7.3h-3.8v16.6h4v-9.2
	c0-1.3,0.3-2.2,1-2.9c0.7-0.7,1.6-1.1,2.7-1.1h1.4V7.1h-1C339.9,7.1,339,7.3,338.2,7.7L338.2,7.7z M357.4,19.9
	c-0.4-0.4-0.7-1.1-0.7-1.9v-7.1h3.8V7.3h-3.8V3.5h-4v1.3c0,0.8-0.2,1.4-0.7,1.9c-0.4,0.4-1.1,0.6-1.9,0.6h-0.3v3.6h2.9v7.3
	c0,1.9,0.5,3.3,1.5,4.3c1,1,2.5,1.6,4.4,1.6c0.7,0,1.3-0.1,2-0.2v-3.4c-0.4,0.1-0.7,0.1-1.1,0.1C358.6,20.6,357.8,20.4,357.4,19.9
	L357.4,19.9z M370,7.7c-0.8,0.4-1.4,1-1.8,2V7.3h-3.8v16.6h4v-9.2c0-1.3,0.3-2.2,1-2.9c0.7-0.7,1.6-1.1,2.7-1.1h1.4V7.1h-1
	C371.6,7.1,370.7,7.3,370,7.7L370,7.7z M389.1,8.1c-1.3-0.8-2.8-1.1-4.4-1.1c-1.6,0-3.1,0.4-4.5,1.1c-1.3,0.7-2.4,1.8-3.2,3.1
	c-0.8,1.3-1.2,2.8-1.2,4.5s0.4,3.2,1.2,4.5c0.8,1.3,1.9,2.3,3.2,3.1c1.3,0.8,2.8,1.1,4.5,1.1c1.6,0,3.1-0.4,4.4-1.1
	c1.3-0.7,2.4-1.8,3.2-3.1c0.8-1.3,1.2-2.8,1.2-4.5c0-1.7-0.4-3.2-1.2-4.5C391.5,9.9,390.4,8.8,389.1,8.1L389.1,8.1z M388.7,18.2
	c-0.4,0.7-0.9,1.3-1.6,1.8c-0.7,0.4-1.5,0.6-2.4,0.6c-0.9,0-1.7-0.2-2.4-0.6c-0.7-0.4-1.3-1-1.6-1.8c-0.4-0.8-0.6-1.6-0.6-2.6
	s0.2-1.8,0.6-2.6c0.4-0.7,0.9-1.3,1.6-1.8c0.7-0.4,1.5-0.7,2.4-0.7s1.7,0.2,2.3,0.7c0.7,0.4,1.3,1,1.6,1.8c0.4,0.8,0.6,1.6,0.6,2.6
	C389.3,16.6,389.1,17.4,388.7,18.2L388.7,18.2z M407.6,17c0,1.1-0.3,2-0.9,2.6c-0.6,0.6-1.4,0.9-2.4,0.9c-1,0-1.8-0.3-2.4-0.9
	c-0.6-0.6-0.9-1.5-0.9-2.5V7.3h-4v10.2c0,2,0.5,3.7,1.6,4.9c1.1,1.2,2.7,1.9,4.6,1.9c1,0,2-0.2,2.7-0.6c0.8-0.4,1.5-1,1.9-1.8v2h3.8
	V7.3h-4L407.6,17L407.6,17z M422.9,18.1l-3.9-10.8h-4.4l6.5,16.6h3.5l6.5-16.6h-4.4L422.9,18.1L422.9,18.1z M445.8,8.1
	c-1.2-0.8-2.7-1.1-4.4-1.1c-1.5,0-2.9,0.4-4.2,1.1c-1.2,0.8-2.3,1.8-3,3.1c-0.7,1.3-1.1,2.8-1.1,4.4c0,1.6,0.4,3.1,1.1,4.4
	c0.7,1.3,1.7,2.4,3,3.1c1.3,0.8,2.8,1.2,4.5,1.2c1.7,0,3.2-0.4,4.4-1.1c1.3-0.8,2.2-1.7,2.7-2.9l-3.2-1.6c-0.4,0.6-0.9,1.2-1.5,1.6
	c-0.6,0.4-1.4,0.6-2.3,0.6c-1.2,0-2.2-0.4-3-1.1c-0.8-0.7-1.3-1.7-1.4-2.9h12c0.1-0.2,0.1-0.5,0.2-0.8c0-0.3,0.1-0.6,0.1-0.9
	c0-1.5-0.3-2.8-0.9-4.1C447.9,9.8,447,8.8,445.8,8.1L445.8,8.1z M437.4,13.7c0.2-1.1,0.7-1.9,1.4-2.5c0.7-0.6,1.6-0.9,2.6-0.9
	c1.1,0,1.9,0.3,2.6,1c0.7,0.6,1.1,1.5,1.2,2.5L437.4,13.7L437.4,13.7z M458.8,7.7c-0.8,0.4-1.4,1-1.8,2V7.3h-3.8v16.6h4v-9.2
	c0-1.3,0.3-2.2,1-2.9c0.7-0.7,1.6-1.1,2.7-1.1h1.4V7.1h-1C460.5,7.1,459.6,7.3,458.8,7.7L458.8,7.7z M471.6,23.9h4V0.8h-4V23.9
	L471.6,23.9z M490.8,7.7c-1-0.5-2.2-0.8-3.6-0.8c-1.7,0-3.2,0.4-4.5,1.2c-1.3,0.8-2.2,1.8-2.7,3.1l3.3,1.6c0.3-0.7,0.8-1.4,1.4-1.8
	c0.6-0.5,1.4-0.7,2.3-0.7c0.9,0,1.6,0.2,2.2,0.7c0.6,0.5,0.9,1.1,0.9,1.8v0.5l-4.9,0.8c-2,0.3-3.4,0.9-4.3,1.9
	c-0.9,0.9-1.4,2.1-1.4,3.4c0,1.5,0.5,2.6,1.6,3.5c1,0.9,2.4,1.3,4.1,1.3c2.2,0,3.9-0.7,5.2-2.1v1.8h3.8v-11c0-1.2-0.3-2.2-0.9-3.1
	C492.6,8.9,491.8,8.2,490.8,7.7z M490.1,17.1c0,1.1-0.4,2.1-1.2,2.9c-0.8,0.8-1.8,1.2-3.1,1.2c-0.7,0-1.2-0.2-1.6-0.5
	c-0.4-0.3-0.6-0.8-0.6-1.4c0-1.2,0.8-1.9,2.4-2.2l4.2-0.7L490.1,17.1L490.1,17.1z M518.1,8.1c-1.3-0.8-2.7-1.2-4.3-1.2
	c-2.2,0-3.9,0.7-5.1,2V0.8h-4v23.1h3.8V22c0.6,0.7,1.4,1.3,2.3,1.6c1,0.4,2,0.6,3,0.6c1.6,0,3-0.4,4.3-1.1c1.2-0.8,2.3-1.8,3-3.1
	c0.7-1.3,1.1-2.8,1.1-4.4s-0.4-3.1-1.1-4.4C520.4,9.9,519.4,8.9,518.1,8.1z M517.4,18.2c-0.4,0.7-1,1.3-1.7,1.8
	c-0.7,0.4-1.5,0.6-2.4,0.6c-0.8,0-1.7-0.2-2.4-0.6c-0.7-0.4-1.3-1-1.6-1.8c-0.4-0.8-0.6-1.6-0.6-2.6s0.2-1.8,0.6-2.6
	c0.4-0.7,1-1.3,1.6-1.8c0.7-0.4,1.5-0.7,2.4-0.6c0.9,0,1.7,0.2,2.4,0.7c0.7,0.4,1.3,1,1.7,1.8c0.4,0.8,0.6,1.6,0.6,2.6
	C518,16.6,517.8,17.4,517.4,18.2L517.4,18.2z M538.5,8.1c-1.3-0.8-2.8-1.1-4.4-1.1c-1.6,0-3.1,0.4-4.5,1.1c-1.3,0.7-2.4,1.8-3.2,3.1
	c-0.8,1.3-1.2,2.8-1.2,4.5s0.4,3.2,1.2,4.5c0.8,1.3,1.9,2.3,3.2,3.1c1.3,0.8,2.8,1.1,4.5,1.1c1.6,0,3.1-0.4,4.4-1.1
	c1.3-0.7,2.4-1.8,3.2-3.1c0.8-1.3,1.2-2.8,1.2-4.5s-0.4-3.2-1.2-4.5C540.9,9.9,539.8,8.8,538.5,8.1L538.5,8.1z M538.1,18.2
	c-0.4,0.7-0.9,1.3-1.6,1.8c-0.7,0.4-1.5,0.6-2.3,0.6c-0.9,0-1.7-0.2-2.4-0.6c-0.7-0.4-1.3-1-1.6-1.8c-0.4-0.8-0.6-1.6-0.6-2.6
	s0.2-1.8,0.6-2.6c0.4-0.7,1-1.3,1.6-1.8c0.7-0.4,1.5-0.7,2.4-0.7c0.9,0,1.7,0.2,2.3,0.7c0.7,0.4,1.3,1,1.6,1.8
	c0.4,0.8,0.6,1.6,0.6,2.6C538.7,16.6,538.5,17.4,538.1,18.2L538.1,18.2z M558.3,7.7c-0.9-0.5-2-0.8-3.2-0.8c-1,0-2,0.2-2.8,0.6
	c-0.8,0.4-1.5,1-1.9,1.8v-2h-3.8v16.6h4v-9.7c0-1.1,0.3-1.9,0.9-2.6c0.6-0.6,1.4-1,2.4-1s1.8,0.3,2.4,1c0.6,0.6,0.9,1.5,0.9,2.6v9.7
	h4V13.2c0-1.2-0.3-2.3-0.8-3.3C560.1,9,559.3,8.3,558.3,7.7L558.3,7.7z M577.2,7.7c-0.9-0.5-2-0.8-3.2-0.8c-1,0-2,0.2-2.8,0.6
	c-0.8,0.4-1.5,1-1.9,1.8v-2h-3.8v16.6h4v-9.7c0-1.1,0.3-1.9,0.9-2.6c0.6-0.6,1.4-1,2.4-1s1.8,0.3,2.4,1c0.6,0.6,0.9,1.5,0.9,2.6v9.7
	h4V13.2c0-1.2-0.3-2.3-0.8-3.3C578.9,9,578.1,8.3,577.2,7.7L577.2,7.7z M599.1,11c-0.6-1.2-1.6-2.2-2.7-2.9
	c-1.2-0.8-2.7-1.1-4.4-1.1c-1.5,0-3,0.4-4.2,1.1c-1.2,0.8-2.3,1.8-3,3.1c-0.7,1.3-1.1,2.8-1.1,4.4c0,1.6,0.4,3.1,1.1,4.4
	c0.7,1.3,1.7,2.4,3,3.1c1.3,0.8,2.8,1.2,4.5,1.2c1.7,0,3.2-0.4,4.4-1.1c1.3-0.8,2.2-1.7,2.7-2.9l-3.2-1.6c-0.4,0.6-0.9,1.2-1.5,1.6
	c-0.6,0.4-1.4,0.6-2.3,0.6c-1.2,0-2.2-0.4-3-1.1c-0.8-0.7-1.3-1.7-1.4-2.9h12c0.1-0.2,0.1-0.5,0.2-0.8c0-0.3,0.1-0.6,0.1-0.9
	C600,13.6,599.7,12.2,599.1,11L599.1,11z M587.9,13.7c0.2-1.1,0.7-1.9,1.4-2.5c0.7-0.6,1.6-0.9,2.6-0.9c1.1,0,1.9,0.3,2.6,1
	c0.7,0.6,1.1,1.5,1.2,2.5L587.9,13.7L587.9,13.7z"/>
</svg>
