<svg xmlns="http://www.w3.org/2000/svg" width="500" height="100" viewBox="0 0 500 100"><linearGradient id="a" gradientUnits="userSpaceOnUse" x1="-115.84" y1="169.834" x2="-116.533" y2="169.834" gradientTransform="matrix(280.9197 0 0 -74.6297 32989.668 12721.178)"><stop offset="0" stop-color="#ff5e00"/><stop offset=".53" stop-color="#9c6178"/><stop offset="1" stop-color="#344cbe"/></linearGradient><path d="M461.5 11.1c9.1 1.1 17.2 5.6 22.1 12.3 3.8-3.4 7.2-12.6 13.8-8.4 7.8 6.6-4.6 15.6-8.9 20.1 8.2 39.5-45.9 65.8-63.8 26.1-9.4 18.7-48.5 30.1-62.7 12C333 79 334.5 49 324.4 31c-9.7 2.5-14.5 31.5-16.4 40.8-1.3 7.4-12.3 6.2-11.8-1.3.3-10.3 1.2-21.2-2.5-31-8.3-14-18.4 26.7-19.2 32.5-2.5 9-14.5 3.9-11.5-4.4 2-18.3-7.5-36.2-22.4-16.2-5.4 5.8-14.1-1.5-9-7.8 11.4-15.3 29.2-19.3 39.2-1.2 6.8-19.4 27.1-25.6 34.5-6.2 4.6-10.8 11-17.1 18.8-17.1 21.5-.6 14.1 44.8 32.3 42.7-7.5-23.3 15.9-52.5 39.1-43.3 26.4 13.7 1.1 43.8-19.4 50.5 10.8 4.5 30.8-3 36.3-11.1 11.7-22.5 17.1-49.8 49.1-46.8zM477 42.4c-12.3 5.7-26.3 6.1-41.8 1.6-5.6 36.3 43.4 30.1 41.8-1.6zm-100.6-9.9c-7.6 5.2-11.3 17.5-8.6 27 10.1-3.1 25.6-14.3 26.7-22.8 1-7.3-7.4-10.8-18.1-4.2zm62.5-1c-.3.3-.5.6-.8.9l-.4-.1c14.2 4.2 26 3.7 36.3-1.7-7.9-11-26.4-10-35.1.9z" fill="url(#a)"/><path d="M57.8 3.1v76.6H45.3v-6.1C29.1 91.1-1.6 75.3 0 52.2c-1.8-22.6 28.6-38.8 44.5-22V3.1h13.3zM29.2 35.6c-13-.1-18.8 14.5-13.5 25.2 5.3 10.7 21.6 10.8 26.8.1 5.4-10.6-.2-25.4-13.3-25.3zm54 44.4V24.9H69.9V80h13.3zm42.5-56.5c50 3.7 24.3 80.8-16.9 51V100H95.6V24.7H108v6.4c4.2-5.1 10.7-7.6 17.7-7.6zM124 35.6c-13-.1-18.7 14.7-13.3 25.2 5.4 10.7 21.4 10.6 26.8-.1 5.6-10.5-.6-25.3-13.5-25.1zm51.1 44.1V3.1h-13.3v76.6h13.3zm37.5-56.2c22.9-.1 36.2 24 25 43.6-11 18.7-39.3 18.5-50.3-.1-11-19.6 2.3-43.7 25.3-43.5zm0 12.1c-13-.1-18.8 14.6-13.4 25.2 5.3 10.7 21.3 10.8 26.5 0 5.5-10.3-.3-25.4-13.1-25.2z" fill="#344cbe"/><path d="M76.9 0c3.8 0 7 3.2 7 7-.4 9.3-13.7 9.3-13.9 0-.1-3.8 3.1-7 6.9-7z" fill-rule="evenodd" clip-rule="evenodd" fill="#ff5e00"/></svg>