<svg xmlns="http://www.w3.org/2000/svg" width="658" height="150" viewBox="0 0 658 150"><path d="M0 122.503h6.406v20.894h4.534v-20.894h6.307v-4.04H0v4.04zm32.03 3.548c-2.89-1.649-6.872-1.754-9.757 0-4.592 2.37-6.093 8.854-3.45 13.207 3.457 6.014 13.206 6.209 16.657.098 1.723-2.804 1.723-7.051 0-9.855-.887-1.577-2.07-2.661-3.45-3.45zm-.493 11.038a4.867 4.867 0 0 1-1.774 1.971c-1.393.962-3.771.908-5.223 0-2.523-1.46-2.887-5.214-1.774-7.687.493-.788 1.084-1.478 1.774-1.97 1.451-.908 3.831-.963 5.223 0 .789.492 1.38 1.083 1.774 1.97.493.789.69 1.774.69 2.858-.098 1.084-.295 2.07-.69 2.858zm20.697-1.28c.186 3.462-4.079 5.237-6.406 2.857-.69-.69-.986-1.577-.986-2.76v-10.742h-4.336v11.137c-.21 5.76 4.737 8.954 9.855 6.899.887-.493 1.577-1.084 2.07-1.971v2.168h4.14v-18.233h-4.337v10.644zm16.261 3.153c-.492-.493-.69-1.183-.69-2.07v-7.786h4.14v-3.942h-4.14v-4.139H63.47c.114 2.45-.115 4.256-3.055 4.14v3.941h3.154v7.983c-.13 5.165 4.042 7.13 8.574 6.21v-3.746c-.394.099-.789.099-1.183.099-1.182.098-1.97-.197-2.464-.69zm20.598-12.91c-2.525-1.607-6.8-1.796-9.46 0-5.945 3.31-5.837 13.065 0 16.458 3.982 2.537 10.785 1.3 12.713-3.252l-3.548-1.774c-2.24 3.906-8.904 2.546-9.166-2.169H92.74c.098-.197.098-.492.197-.788.29-1.88-.16-3.916-.986-5.42-.492-1.183-1.478-2.267-2.858-3.056zm-9.165 6.11c.197-1.183.788-2.169 1.577-2.76 2.422-2.143 6.883-.62 6.997 2.76h-8.574zm22.076-3.253c1.016-.77 3.17-.594 4.238.197.788.493 1.281 1.183 1.577 1.972l3.35-1.577c-.59-1.479-1.478-2.661-2.759-3.45-2.203-1.527-5.63-1.668-8.081-.591-.986.493-1.774 1.084-2.366 1.971-1.19 1.645-1.055 4.69.394 6.209.789.887 1.972 1.577 3.548 2.07l2.957.788c.591.197 1.084.394 1.478.69.88.638.739 2.021-.098 2.66-2.42 1.411-5.499-.319-6.603-2.759l-3.253 1.577c1.376 4.596 7.58 6.238 11.728 4.435.986-.493 1.873-1.084 2.366-1.97 2.219-3.331.17-7.348-3.745-8.18l-2.957-.888c-1.023-.344-2.172-.677-2.168-1.872-.197-.592 0-.986.394-1.282zm20.105 14.488h4.336v-25.329h-4.336v25.329zm22.372-17.346c-2.525-1.606-6.8-1.795-9.461 0-5.944 3.312-5.836 13.066 0 16.459 3.983 2.537 10.786 1.3 12.713-3.252l-3.548-1.774c-2.24 3.906-8.903 2.546-9.165-2.169h13.107c.099-.197.099-.492.198-.788.26-1.884-.052-3.917-.986-5.42-.493-1.183-1.577-2.267-2.858-3.056zm-9.166 6.11c.197-1.182.789-2.168 1.577-2.759 2.423-2.143 6.884-.62 6.998 2.76h-8.575zm22.077-3.252c1.016-.77 3.17-.594 4.237.197.789.493 1.282 1.183 1.577 1.972l3.351-1.577c-.591-1.479-1.478-2.661-2.76-3.45-2.202-1.527-5.63-1.668-8.08-.591-.986.493-1.775 1.084-2.366 1.971-1.19 1.645-1.055 4.69.394 6.209.789.887 1.971 1.577 3.548 2.07l2.957.788c.591.197 1.084.394 1.478.69.88.638.738 2.021-.099 2.66-2.419 1.411-5.498-.319-6.603-2.759l-3.252 1.577c1.376 4.596 7.579 6.238 11.728 4.435.986-.493 1.872-1.084 2.365-1.97 2.22-3.331.171-7.348-3.745-8.18l-2.956-.888c-1.023-.344-2.172-.677-2.169-1.872-.197-.592 0-.986.395-1.282zm33.41-11.728h-4.928l-2.07 4.83h3.844l3.154-4.83zm-.198 8.87c-2.525-1.606-6.8-1.795-9.46 0-5.944 3.312-5.837 13.066 0 16.459 3.982 2.537 10.785 1.3 12.713-3.252l-3.548-1.774c-2.24 3.906-8.903 2.546-9.166-2.169h13.108c.099-.197.099-.492.197-.788.261-1.884-.052-3.917-.985-5.42-.592-1.183-1.577-2.267-2.859-3.056zm-9.264 6.11c.197-1.182.789-2.168 1.577-2.759 2.423-2.143 6.884-.62 6.998 2.76h-8.575zm23.653-2.66c2.38-1.543 6.05-.427 6.9 2.266l3.843-1.675c-.794-2.15-2.504-3.806-4.632-4.632-2.64-1.118-6.109-.886-8.574.591-4.459 2.434-5.965 8.778-3.351 13.108.788 1.38 1.97 2.562 3.35 3.45 4.415 2.65 11.38 1.085 13.207-4.041l-3.844-1.774c-.394.985-.887 1.675-1.675 2.266-1.495.986-3.708 1.083-5.224.099a5.78 5.78 0 0 1-1.774-1.971c-1.113-2.473-.749-6.226 1.774-7.687zm28.68-3.45c-2.891-1.649-6.872-1.754-9.757 0-4.592 2.37-6.093 8.854-3.45 13.207 3.456 6.014 13.205 6.209 16.656.098 1.723-2.804 1.724-7.051 0-9.855-.887-1.577-1.97-2.661-3.45-3.45zm-.493 11.038a4.867 4.867 0 0 1-1.774 1.971c-1.393.962-3.772.908-5.223 0-2.524-1.46-2.888-5.214-1.774-7.687.492-.788 1.084-1.478 1.774-1.97 1.45-.908 3.83-.963 5.223 0 .789.492 1.38 1.083 1.774 1.97.982 1.526.843 4.178 0 5.716zm9.363 6.308h4.336v-25.329h-4.336v25.329zm22.372-17.346c-2.526-1.606-6.8-1.795-9.462 0-5.943 3.312-5.836 13.066 0 16.459 3.983 2.537 10.786 1.3 12.714-3.252l-3.548-1.774c-2.24 3.906-8.903 2.546-9.166-2.169h13.108c.099-.197.099-.492.197-.788.29-1.88-.16-3.916-.985-5.42-.493-1.183-1.479-2.267-2.858-3.056zm-9.166 6.11c.197-1.182.788-2.168 1.577-2.759 2.423-2.143 6.884-.62 6.997 2.76h-8.574zm22.076-3.252c1.017-.77 3.17-.594 4.238.197.789.493 1.281 1.183 1.577 1.972l3.35-1.577c-.59-1.479-1.478-2.661-2.759-3.45-2.203-1.527-5.63-1.668-8.081-.591-.986.493-1.774 1.084-2.366 1.971-1.189 1.645-1.054 4.69.395 6.209.788.887 1.97 1.577 3.548 2.07l2.956.788c.592.197 1.084.394 1.479.69.88.638.738 2.021-.099 2.66-2.42 1.411-5.499-.319-6.603-2.759l-3.252 1.577c1.376 4.596 7.579 6.238 11.728 4.435.985-.493 1.872-1.084 2.365-1.97 2.22-3.331.171-7.348-3.745-8.18l-2.957-.888c-1.022-.344-2.172-.677-2.168-1.872-.197-.592 0-.986.394-1.282zm34.691-2.858c-3.139-2.038-8.092-1.696-10.446 1.281v-2.168h-4.14V150h4.337v-8.476c1.462 1.458 3.466 2.135 5.617 2.07 7.328.21 11.343-8.36 7.983-14.389-.887-1.183-1.97-2.365-3.35-3.154zm-.69 11.038c-1.266 2.47-4.783 3.488-7.095 1.971-.789-.492-1.38-1.084-1.774-1.97-.798-1.578-.78-4.089 0-5.717.492-.788 1.084-1.478 1.774-1.97 2.442-1.463 5.781-.573 7.096 1.97.982 1.526.843 4.178 0 5.716zm23.16-11.038c-2.89-1.649-6.871-1.754-9.756 0-4.592 2.37-6.093 8.854-3.45 13.207 3.456 6.014 13.205 6.209 16.656.098 1.723-2.804 1.724-7.051 0-9.855-.887-1.577-2.07-2.661-3.45-3.45zm-.59 11.038a4.867 4.867 0 0 1-1.774 1.971c-1.394.962-3.772.908-5.224 0-2.523-1.46-2.887-5.214-1.774-7.687.493-.788 1.084-1.478 1.774-1.97 1.451-.908 3.831-.963 5.224 0 .788.492 1.38 1.083 1.774 1.97.934 1.521.934 4.195 0 5.716zm20.795-1.28c0 1.182-.296 2.167-1.085 2.857-2.256 2.323-6.57.7-6.307-2.76v-10.742h-4.336v11.137c-.211 5.76 4.737 8.954 9.855 6.899.887-.493 1.577-1.084 2.07-1.971v2.168h4.139v-18.233h-4.336v10.644zm15.374-10.25c-.887.394-1.478 1.084-1.971 2.168v-2.563h-4.14v18.233h4.337v-10.151c-.034-2.625 1.642-4.448 4.238-4.435h1.577v-3.844c-1.347-.04-2.885.03-4.04.591zm20.992 13.403c-.493-.493-.69-1.183-.69-2.07v-7.786h4.14v-3.942h-4.14v-4.139h-4.336c.113 2.45-.115 4.256-3.055 4.14v3.941h3.153v7.983c-.13 5.165 4.043 7.13 8.575 6.21v-3.746c-.395.099-.789.099-1.183.099-1.183.098-1.971-.197-2.464-.69zm13.798-13.404c-.887.395-1.479 1.085-1.971 2.169v-2.563h-4.14v18.233h4.337v-10.151c-.034-2.625 1.642-4.448 4.238-4.435h1.577v-3.844c-1.328-.042-3.053.033-4.041.591zm20.992.493c-2.891-1.649-6.872-1.754-9.757 0-4.592 2.37-6.093 8.854-3.45 13.207 3.456 6.014 13.205 6.209 16.656.098 1.724-2.804 1.724-7.051 0-9.855-.887-1.577-2.07-2.661-3.45-3.45zm-.493 11.038a4.867 4.867 0 0 1-1.774 1.971c-1.393.962-3.772.908-5.223 0-2.524-1.46-2.888-5.214-1.774-7.687.493-.788 1.084-1.478 1.774-1.97 1.45-.908 3.83-.963 5.223 0 .789.492 1.38 1.083 1.774 1.97.493.789.69 1.774.69 2.858-.099 1.084-.296 2.07-.69 2.858zm20.697-1.28c.186 3.462-4.079 5.237-6.407 2.857-.69-.69-.985-1.577-.985-2.76v-10.742h-4.336v11.137c-.211 5.76 4.737 8.954 9.855 6.899.887-.493 1.577-1.084 2.07-1.971v2.168h4.139v-18.233h-4.336v10.644zm16.754 1.28l-4.336-11.826h-4.83l7.195 18.232h3.843l7.195-18.232h-4.83l-4.237 11.826zm25.131-11.038c-2.525-1.606-6.8-1.795-9.46 0-5.945 3.312-5.837 13.066 0 16.459 3.982 2.537 10.785 1.3 12.713-3.252l-3.548-1.774c-2.24 3.906-8.904 2.546-9.166-2.169h13.108c.098-.197.098-.492.197-.788.29-1.88-.16-3.916-.986-5.42-.591-1.183-1.577-2.267-2.858-3.056zm-9.165 6.11c.197-1.182.788-2.168 1.577-2.759 2.422-2.143 6.883-.62 6.997 2.76h-8.574zm23.456-6.603c-.887.395-1.479 1.085-1.971 2.169v-2.563h-4.14v18.233h4.337v-10.151c-.034-2.625 1.641-4.448 4.238-4.435h1.576v-3.844c-1.327-.042-3.053.033-4.04.591zm13.994 17.839h4.337v-25.329h-4.337v25.329zm20.993-17.74c-3.988-1.897-10.166-.47-11.827 3.942l3.548 1.774c1.248-3.616 7.658-3.882 7.392.592l-5.421.887c-2.168.394-3.745 1.084-4.73 2.07-2.101 1.92-2.1 5.763.098 7.588 2.701 2.232 7.971 1.712 10.25-.986v1.971h4.139v-12.122c0-1.281-.296-2.365-.986-3.35-.492-1.085-1.38-1.873-2.463-2.366zm-.789 10.25c.213 3.19-3.69 5.542-6.406 3.942-1.545-1.468-.43-3.584 1.873-3.844l4.533-.788v.69zm30.65-9.856c-3.01-1.986-7.939-1.676-10.25.986v-8.969h-4.335v25.329h4.139v-2.07c1.441 1.708 3.562 2.366 5.815 2.365 7.327.211 11.342-8.359 7.982-14.388a9.638 9.638 0 0 0-3.35-3.253zm-.69 11.038c-1.266 2.47-4.783 3.488-7.095 1.971-.789-.492-1.38-1.084-1.774-1.97-.798-1.578-.78-4.089 0-5.717.493-.788 1.084-1.478 1.774-1.97 2.443-1.463 5.781-.573 7.096 1.97.934 1.521.934 4.195 0 5.716zm23.161-11.038c-2.89-1.649-6.872-1.754-9.757 0-4.592 2.37-6.093 8.854-3.45 13.207 3.456 6.014 13.205 6.209 16.656.098 1.724-2.804 1.724-7.051 0-9.855-.887-1.577-2.07-2.661-3.449-3.45zm-.493 11.038a4.868 4.868 0 0 1-1.774 1.971c-1.393.962-3.772.908-5.223 0-2.524-1.46-2.887-5.214-1.774-7.687.493-.788 1.084-1.478 1.774-1.97 1.45-.908 3.83-.963 5.223 0 .789.492 1.38 1.083 1.774 1.97.493.789.69 1.774.69 2.858-.098 1.084-.296 2.07-.69 2.858zm22.175-11.432c-2.624-1.566-7.1-1.151-8.673 1.774v-2.267h-4.139v18.233h4.336v-10.644c-.189-5.28 7.466-5.186 7.392 0v10.644h4.336v-11.728c0-1.38-.295-2.563-.887-3.548-.492-1.084-1.28-1.873-2.365-2.464zm20.598 0c-2.625-1.566-7.1-1.151-8.673 1.774v-2.267h-4.14v18.233h4.337v-10.644c-.189-5.28 7.466-5.186 7.392 0v10.644h4.336v-11.728c0-1.38-.295-2.563-.887-3.548-.493-1.084-1.281-1.873-2.365-2.464zm23.949 3.548c-2.08-4.334-8.412-5.886-12.517-3.252-5.943 3.311-5.836 13.065 0 16.458 3.983 2.537 10.786 1.3 12.714-3.252l-3.548-1.774c-2.24 3.907-8.903 2.547-9.166-2.168h13.108c.099-.197.099-.493.197-.789 0-.295.099-.69.099-.985.197-1.38-.099-2.858-.887-4.238zm-12.123 2.957c.198-1.183.789-2.169 1.577-2.76 2.423-2.143 6.884-.62 6.998 2.76h-8.575z" fill="#0c1c67"/><linearGradient id="a" gradientUnits="userSpaceOnUse" x1="-47.839" y1="168.714" x2="-48.496" y2="168.714" gradientTransform="matrix(280.9197 0 0 -74.6297 13955.128 12635.178)"><stop offset="0" stop-color="#ff5e00"/><stop offset=".53" stop-color="#9c6178"/><stop offset="1" stop-color="#344cbe"/></linearGradient><path d="M529.04 10.545c8.575 1.084 16.262 5.322 20.894 11.63 3.647-3.253 6.8-11.925 13.108-7.983 7.392 6.209-4.336 14.783-8.476 19.02 7.786 37.452-43.462 62.287-60.414 24.738-8.87 17.74-45.926 28.482-59.33 11.334-27.496 5.519-26.018-22.963-35.578-40.013-9.165 2.365-13.699 29.862-15.571 38.633-1.183 6.997-11.63 5.913-11.137-1.183.296-9.756 1.183-20.105-2.365-29.369-7.884-13.305-17.444 25.329-18.134 30.75-2.365 8.475-13.7 3.646-10.94-4.14 1.873-17.346-7.096-34.297-21.189-15.375-5.125 5.52-13.305-1.38-8.476-7.391 10.841-14.488 27.694-18.233 37.155-1.183 6.406-18.331 25.625-24.244 32.72-5.913 4.337-10.25 10.447-16.163 17.839-16.163 20.4-.591 13.305 42.378 30.552 40.407-7.096-22.076 15.079-49.671 37.056-40.998 25.033 13.009 1.084 41.491-18.33 47.799 10.249 4.237 29.171-2.859 34.395-10.546 10.84-21.09 15.966-46.912 46.222-44.054zm14.685 29.567c-11.63 5.42-24.934 5.814-39.619 1.478-5.223 34.494 41.098 28.58 39.62-1.478zm-95.302-9.363c-7.194 4.928-10.742 16.557-8.18 25.526 9.56-2.957 24.245-13.502 25.329-21.584.985-6.8-6.998-10.15-17.149-3.942zm59.231-.887c-.295.296-.492.591-.788.887l-.394-.099c13.403 3.943 24.638 3.548 34.395-1.576-7.49-10.546-24.934-9.56-33.213.788z" fill="url(#a)"/><path d="M146.748 2.957v72.536H134.92v-5.815c-15.374 16.557-44.448 1.577-42.871-20.302-1.675-21.387 27.102-36.761 42.181-20.795V2.957h12.517zm-27.103 30.749c-12.32-.099-17.838 13.699-12.812 23.85 5.026 10.151 20.5 10.25 25.427.098 5.125-10.052-.197-24.047-12.615-23.948zm51.15 42.082V23.555H158.18V75.69h12.615v.098zm40.21-53.515c47.306 3.548 23.062 76.479-15.966 48.292v24.146h-12.516V23.357h11.728v6.012c4.04-4.73 10.151-7.096 16.754-7.096zm-1.577 11.433c-12.319-.099-17.74 13.896-12.615 23.85 5.125 10.151 20.303 10.052 25.427-.099 5.322-9.954-.59-23.948-12.812-23.751zm48.39 41.787V2.957h-12.614v72.536h12.615zm35.48-53.22c21.682-.098 34.297 22.766 23.653 41.295-10.446 17.74-37.253 17.542-47.601-.099-10.349-18.627 2.168-41.393 23.948-41.196zm0 11.433c-12.319-.099-17.838 13.797-12.713 23.85 5.026 10.151 20.203 10.25 25.131 0 5.224-9.757-.295-24.047-12.418-23.85z" fill="#344cbe"/><path d="M164.783 0c3.647 0 6.603 3.055 6.603 6.603-.394 8.772-13.009 8.772-13.206 0 0-3.548 3.055-6.603 6.603-6.603z" fill-rule="evenodd" clip-rule="evenodd" fill="#ff5e00"/></svg>