<svg xmlns="http://www.w3.org/2000/svg" width="500" height="100" viewBox="0 0 500 100"><linearGradient id="a" gradientUnits="userSpaceOnUse" x1="-76.904" y1="2.269" x2="-77.673" y2="2.269" gradientTransform="matrix(280.8924 0 0 74.6296 22070.695 -122.748)"><stop offset="0" stop-color="#ff5e00"/><stop offset=".566" stop-color="#ffb08b"/><stop offset="1" stop-color="#fff"/></linearGradient><path d="M461.6 11.1c9.1 1.1 17.2 5.6 22.1 12.3 3.8-3.4 7.2-12.6 13.8-8.4 7.8 6.6-4.6 15.7-8.9 20.2 8.5 39.1-46.3 65.8-63.8 26.2-9.3 18.6-48.6 30.1-62.7 12-28.8 6-27.5-24.2-37.5-42.2-8.9 1.6-14.5 30.7-16.2 39.1 0 8.4-12.3 8.8-12.1.2 1.1-8.9.8-51.2-13.3-26-4.1 8.7-6.4 18.2-8.5 27.5-1.6 7.7-13.1 5.4-11.7-2.3 2.5-17.5-5.9-39.5-21.9-18.6-5.2 6.3-14.4-1.1-9.3-7.5 11.6-15.2 29.2-19.3 39.2-1.2 6.7-19.4 27.1-25.6 34.6-6.2 6.3-17.8 24.6-24.2 32.2-6.9 5.5 9.5 4.5 32.9 18.8 32.6-7.4-23.4 15.9-52.4 39.2-43.2 26.4 13.7 1 43.8-19.4 50.5 13.6 4.6 34.5-3.9 39.5-16.2 6.7-21.6 20.2-45.6 45.9-41.9zM477 42.4c-12.3 5.7-26.3 6.1-41.8 1.5-5.6 36.3 43.3 30.1 41.8-1.5zm-100.5-9.9c-7.6 5.2-11.3 17.4-8.6 27.1 10.1-3.1 25.6-14.3 26.7-22.8.9-7.4-7.5-10.9-18.1-4.3zm62.5-1c-.3.3-.5.6-.8.9l-.4-.1c14.2 4.2 26 3.7 36.3-1.7-8-11-26.5-10-35.1.9z" fill="url(#a)"/><path d="M44.5 30.3C13.8 4-19.3 56.7 13.5 77.2c9.3 5.8 24.3 5.3 31.7-3.5v6.1h12.5V3.1H44.5v27.2zm-1.9 30.6c-5.3 10.6-21.6 10.6-26.8-.1-5.4-10.6.5-25.3 13.5-25.2 13-.1 18.6 14.7 13.3 25.3zM69.9 80h13.3V24.9H69.9V80zm55.8-56.5c-6.9 0-13.5 2.5-17.7 7.7v-6.4H95.6V100h13.3V74.5c40.9 29.9 66.6-47.7 16.8-51zm11.8 37.3c-5.4 10.7-21.4 10.8-26.8.1-5.4-10.5.3-25.3 13.3-25.2 12.9-.3 19.1 14.5 13.5 25.1zm24.3 18.9h13.3V3.1h-13.3v76.6zm50.8-56.2c-23-.2-36.3 23.9-25.2 43.6 10.9 18.6 39.3 18.7 50.3.1 11.2-19.7-2.2-43.8-25.1-43.7zm13.2 37.3c-5.2 10.8-21.3 10.7-26.5 0-5.4-10.5.5-25.3 13.4-25.2 12.7-.2 18.5 14.9 13.1 25.2z" fill="#fff"/><path d="M76.9 0c3.8 0 7 3.2 7 7-.4 9.3-13.7 9.3-13.9 0-.1-3.8 3.1-7 6.9-7z" fill="#ff5e00"/></svg>